# xmcd
#
# Track frame offsets:
#	150
#	17437
#	32174
#	46311
#	64123
#	82535
#	95997
#	112459
#	127046
#	143433
#	158770
#	173207
#	190719
#	208456
#	225518
#	238380
#	251317
#	265379
#	285216
#
# Disc length: 4037 seconds
#
# Revision: 2
# Processed by: cddbd v1.5.2PL0 Copyright (c) Steve Scherf et al.
# Submitted via: EasyCDDAExtractor 6.2.0.3
#
DISCID=080fc313
DTITLE=Various Artist - Promo Only Country September 2007
DYEAR=2007
DGENRE=Country
TTITLE0=Brad Paisley - Online
TTITLE1=Phil Vassar - This Is My Life
TTITLE2=Jo Dee Messina - Biker Chick
TTITLE3=Rascal Flatts - Take Me There
TTITLE4=Billy Currington - Tangled Up
TTITLE5=Chris Cagle - What Kinda Gone
TTITLE6=Carolina Rain - Dealin'
TTITLE7=Emerson Drive - You Still Own Me
TTITLE8=Gary Allan - Watching Airplanes
TTITLE9=Jennifer Hanson - Joyride
TTITLE10=Jake Owen - Something About A Woman
TTITLE11=Annie Sims - Everything I Know About Leavin'
TTITLE12=Clint Black - The Strong One
TTITLE13=Ryan Weaver - Talkin' Part
TTITLE14=Rio Grand - That's My Memory
TTITLE15=John Keaton - This Ain't No Yard Sale
TTITLE16=Doug Stone - Nice Problem
TTITLE17=Devon Allen Johnson - Bet He Didn't Say That
TTITLE18=Leah Faith - Girl In The Mirror
EXTD=
EXTT0=
EXTT1=
EXTT2=
EXTT3=
EXTT4=
EXTT5=
EXTT6=
EXTT7=
EXTT8=
EXTT9=
EXTT10=
EXTT11=
EXTT12=
EXTT13=
EXTT14=
EXTT15=
EXTT16=
EXTT17=
EXTT18=
PLAYORDER=
